<svg width="11" height="12" viewBox="0 0 11 12" fill="none" xmlns="http://www.w3.org/2000/svg">
<path d="M8.88211 5.45514V9.54955C8.88211 9.8172 8.77579 10.0739 8.58654 10.2631C8.39728 10.4524 8.1406 10.5587 7.87296 10.5587H3.1636C2.89596 10.5587 2.63927 10.4524 2.45002 10.2631C2.26077 10.0739 2.15445 9.8172 2.15445 9.54955V2.82189C2.15445 2.55425 2.26077 2.29757 2.45002 2.10832C2.63927 1.91906 2.89596 1.81274 3.1636 1.81274H5.23971C5.41808 1.81277 5.58913 1.88363 5.71527 2.00974L8.68511 4.97958C8.81122 5.10572 8.88208 5.27677 8.88211 5.45514Z" stroke="white" stroke-width="0.672766" stroke-linejoin="round"/>
<path d="M5.51826 1.98083V4.50371C5.51826 4.68214 5.58914 4.85326 5.71531 4.97942C5.84147 5.10559 6.01259 5.17647 6.19102 5.17647H8.71389M3.83634 6.85839H7.20017M3.83634 8.5403H7.20017" stroke="white" stroke-width="0.672766" stroke-linecap="round" stroke-linejoin="round"/>
</svg>
