<svg width="11" height="13" viewBox="0 0 11 13" fill="none" xmlns="http://www.w3.org/2000/svg">
<path d="M1.58223 3.19638L1.95764 4.79532L1.58223 6.38731L2.97957 7.24935L3.83465 8.64669L5.43359 8.27128L7.03253 8.64669L7.88762 7.24935L9.28495 6.38731L8.90955 4.79532L9.28495 3.19638L7.89457 2.33435L7.03253 0.937012L5.43359 1.31937L3.8416 0.943964L2.97262 2.33435L1.58223 3.19638ZM5.44055 7.6039C4.70304 7.6039 3.99574 7.31093 3.47425 6.78943C2.95275 6.26794 2.65978 5.56064 2.65978 4.82313C2.65978 4.08563 2.95275 3.37833 3.47425 2.85683C3.99574 2.33534 4.70304 2.04237 5.44055 2.04237C6.96997 2.04237 8.21436 3.28676 8.21436 4.81618C8.21436 6.35951 6.96997 7.6039 5.44055 7.6039ZM5.42664 6.90871C4.27262 6.90871 3.34802 5.97715 3.34802 4.82313C3.34802 3.67607 4.27262 2.73756 5.42664 2.73756C6.58066 2.73756 7.51917 3.67607 7.51917 4.82313C7.51917 5.97715 6.58066 6.90871 5.42664 6.90871ZM8.09618 7.67342L7.20633 9.23065L5.76033 8.90391L7.51917 12.9569L8.49243 11.4275H10.2304L8.09618 7.67342ZM2.7432 7.72208L3.61219 9.28626L5.09295 8.93171L3.34802 12.9569L2.37475 11.4275H0.636772L2.7432 7.72208Z" fill="black"/>
</svg>
